<svg width="30" height="38" viewBox="0 0 30 38" fill="none" xmlns="http://www.w3.org/2000/svg">
<path d="M1.93786 23L1.93786 5.54545H7.83558C9.19922 5.54545 10.3185 5.77841 11.1935 6.24432C12.0685 6.70454 12.7163 7.33807 13.1367 8.14489C13.5572 8.9517 13.7674 9.86932 13.7674 10.8977C13.7674 11.9261 13.5572 12.8381 13.1367 13.6335C12.7163 14.429 12.0714 15.054 11.2021 15.5085C10.3327 15.9574 9.22195 16.1818 7.86967 16.1818H3.09695V14.2727H7.80149C8.73331 14.2727 9.48331 14.1364 10.0515 13.8636C10.6254 13.5909 11.0401 13.2045 11.2958 12.7045C11.5572 12.1989 11.6879 11.5966 11.6879 10.8977C11.6879 10.1989 11.5572 9.58807 11.2958 9.06534C11.0344 8.54261 10.6168 8.1392 10.043 7.85511C9.46911 7.56534 8.71058 7.42045 7.7674 7.42045H4.05149L4.05149 23H1.93786ZM10.1538 15.1591L14.4492 23H11.9947L7.7674 15.1591H10.1538Z" fill="#0004FF"/>
<path d="M15.4872 31.0574L15.4872 13.6028H21.5894C22.8054 13.6028 23.8082 13.8131 24.598 14.2335C25.3877 14.6483 25.9758 15.2079 26.3622 15.9125C26.7485 16.6113 26.9417 17.3869 26.9417 18.2392C26.9417 18.9892 26.8082 19.6085 26.5411 20.0971C26.2798 20.5858 25.9332 20.9721 25.5014 21.2562C25.0752 21.5403 24.6122 21.7506 24.1122 21.8869V22.0574C24.6463 22.0915 25.1832 22.279 25.723 22.6199C26.2627 22.9608 26.7144 23.4494 27.0781 24.0858C27.4417 24.7221 27.6235 25.5006 27.6235 26.421C27.6235 27.296 27.4247 28.0829 27.0269 28.7818C26.6292 29.4807 26.0014 30.0346 25.1434 30.4437C24.2855 30.8528 23.169 31.0574 21.794 31.0574H15.4872ZM17.6008 29.1824H21.794C23.1747 29.1824 24.1548 28.9153 24.7343 28.3812C25.3196 27.8415 25.6122 27.1881 25.6122 26.421C25.6122 25.8301 25.4616 25.2846 25.1605 24.7846C24.8593 24.279 24.4304 23.8756 23.8735 23.5744C23.3167 23.2676 22.6576 23.1142 21.8963 23.1142H17.6008V29.1824ZM17.6008 21.2733H21.5213C22.1576 21.2733 22.7315 21.1483 23.2429 20.8983C23.7599 20.6483 24.169 20.296 24.4701 19.8415C24.7769 19.3869 24.9304 18.8528 24.9304 18.2392C24.9304 17.4721 24.6633 16.8216 24.1292 16.2875C23.5951 15.7477 22.7485 15.4778 21.5894 15.4778H17.6008V21.2733Z" fill="#0004FF"/>
</svg>
